<?xml version="1.0" standalone="no"?>
<!DOCTYPE svg PUBLIC "-//W3C//DTD SVG 20010904//EN"
 "http://www.w3.org/TR/2001/REC-SVG-20010904/DTD/svg10.dtd">
<svg version="1.0" xmlns="http://www.w3.org/2000/svg"
 width="250.000000pt" height="250.000000pt" viewBox="0 0 250.000000 250.000000"
 preserveAspectRatio="xMidYMid meet">

<g transform="translate(0.000000,250.000000) scale(0.100000,-0.100000)"
fill="#000000" stroke="none">
<path d="M1135 2364 c-87 -19 -201 -67 -280 -119 -71 -46 -188 -160 -234 -228
-83 -122 -138 -284 -148 -437 l-6 -94 -95 -176 c-135 -250 -142 -266 -130
-300 12 -37 51 -50 149 -50 l77 0 4 -163 c3 -140 6 -168 24 -207 28 -59 77
-108 139 -136 47 -22 62 -24 233 -24 l182 0 0 -80 c0 -73 3 -83 25 -105 29
-30 68 -32 95 -5 18 18 20 33 20 155 0 188 19 175 -259 175 -210 0 -219 1
-252 23 -62 41 -69 68 -69 283 0 228 1 226 -111 232 -38 2 -69 5 -69 6 0 1 40
77 88 168 l89 166 6 97 c12 182 63 317 163 439 143 173 348 264 574 253 214
-10 397 -105 525 -271 107 -141 150 -279 143 -458 -8 -183 -60 -309 -181 -446
l-47 -53 0 -368 c0 -337 2 -371 18 -389 26 -32 63 -37 95 -12 l27 21 0 343 0
343 53 69 c75 96 101 145 136 249 40 122 55 251 41 363 -55 437 -411 754 -844
751 -61 0 -142 -7 -181 -15z"/>
<path d="M1240 2040 c-237 -32 -399 -220 -445 -515 -5 -33 -2 -46 15 -68 45
-57 130 -19 130 58 0 49 38 164 72 217 35 57 92 109 150 140 37 20 58 23 148
23 96 0 110 -3 164 -29 73 -36 133 -94 166 -161 21 -42 25 -65 25 -140 0 -80
-3 -95 -27 -136 -58 -99 -142 -144 -257 -137 -59 3 -76 8 -108 34 -81 64 -105
169 -58 249 39 68 120 94 185 60 32 -17 50 -43 50 -74 0 -24 -45 -61 -75 -61
-29 0 -65 -40 -65 -71 0 -14 11 -36 25 -49 20 -19 32 -22 70 -18 62 7 133 53
158 102 81 156 -36 326 -224 326 -163 0 -288 -128 -289 -297 0 -140 70 -252
197 -315 60 -29 75 -32 152 -32 139 1 236 49 328 162 62 76 87 166 81 287 -4
81 -10 104 -42 170 -67 143 -201 241 -364 271 -85 15 -83 15 -162 4z"/>
</g>
</svg>
